<svg width="400" height="300" viewBox="0 0 400 300" fill="none" xmlns="http://www.w3.org/2000/svg">
    <!-- Background elements -->
    <circle cx="200" cy="150" r="120" fill="#F5F7FF" />
    <circle cx="200" cy="150" r="80" fill="#E6EBFF" />

    <!-- Chart/healthcare data visualization -->
    <rect x="130" y="120" width="160" height="100" rx="8" fill="white" stroke="#6B46C1"
        stroke-opacity="0.2" stroke-width="2" />

    <!-- Medical clipboard -->
    <rect x="170" y="100" width="80" height="120" rx="6" fill="#6B46C1" fill-opacity="0.1"
        stroke="#6B46C1" stroke-width="2" />
    <rect x="180" y="110" width="60" height="100" rx="4" fill="white" stroke="#6B46C1"
        stroke-width="1" />

    <!-- Clipboard top detail -->
    <rect x="205" y="90" width="10" height="20" rx="5" fill="#6B46C1" />

    <!-- Form lines -->
    <rect x="190" y="125" width="40" height="4" rx="2" fill="#6B46C1" fill-opacity="0.3" />
    <rect x="190" y="140" width="40" height="4" rx="2" fill="#6B46C1" fill-opacity="0.3" />

    <!-- Heartbeat/pulse line -->
    <path d="M180 165H190L195 155L200 175L205 160L210 170L215 150L220 165H230" stroke="#3B82F6"
        stroke-width="3" stroke-linecap="round" stroke-linejoin="round" />

    <!-- Checkmark -->
    <circle cx="210" y="190" r="10" fill="#3B82F6" fill-opacity="0.2" />
    <path d="M205 190L209 194L215 186" stroke="#3B82F6" stroke-width="2" stroke-linecap="round"
        stroke-linejoin="round" />

    <!-- Decorative elements -->
    <circle cx="120" cy="80" r="15" fill="#6B46C1" fill-opacity="0.2" />
    <circle cx="280" cy="80" r="15" fill="#3B82F6" fill-opacity="0.2" />
    <circle cx="120" cy="220" r="10" fill="#3B82F6" fill-opacity="0.2" />
    <circle cx="280" cy="220" r="10" fill="#6B46C1" fill-opacity="0.2" />

    <!-- Patient profile elements -->
    <circle cx="100" cy="150" r="25" fill="#3B82F6" fill-opacity="0.1" />
    <circle cx="100" cy="140" r="8" fill="#3B82F6" fill-opacity="0.6" />
    <rect x="85" y="155" width="30" height="15" rx="7.5" fill="#3B82F6" fill-opacity="0.6" />

    <!-- Doctor profile elements -->
    <circle cx="300" cy="150" r="25" fill="#6B46C1" fill-opacity="0.1" />
    <path d="M300 135V165M285 150H315" stroke="#6B46C1" stroke-width="2" stroke-linecap="round"
        stroke-linejoin="round" />

    <!-- Connection between patient and healthcare system -->
    <path d="M125 150H170" stroke="#3B82F6" stroke-width="2" stroke-dasharray="4 4" />
    <path d="M250 150H275" stroke="#6B46C1" stroke-width="2" stroke-dasharray="4 4" />
</svg>