<svg width="500" height="500" viewBox="0 0 500 500" fill="none" xmlns="http://www.w3.org/2000/svg">
    <!-- Background shapes -->
    <rect x="50" y="80" width="400" height="340" rx="16" fill="#F7F8FC" stroke="#DDE1EE"
        stroke-width="2" />

    <!-- Header -->
    <rect x="50" y="80" width="400" height="60" rx="16" fill="#5A2DCF" stroke="#4922A8"
        stroke-width="2" />
    <circle cx="85" cy="110" r="15" fill="white" opacity="0.9" />
    <rect x="110" y="105" width="80" height="10" rx="5" fill="white" opacity="0.7" />
    <rect x="380" y="100" width="40" height="20" rx="10" fill="white" opacity="0.3" />

    <!-- Sidebar -->
    <rect x="50" y="140" width="80" height="280" fill="#F1F3F9" stroke="#DDE1EE" stroke-width="2" />

    <!-- Sidebar items -->
    <rect x="65" y="170" width="50" height="8" rx="4" fill="#5A2DCF" opacity="0.7" />
    <rect x="65" y="190" width="50" height="8" rx="4" fill="#5A2DCF" opacity="0.4" />
    <rect x="65" y="210" width="50" height="8" rx="4" fill="#5A2DCF" opacity="0.4" />
    <rect x="65" y="230" width="50" height="8" rx="4" fill="#5A2DCF" opacity="0.4" />
    <rect x="65" y="250" width="50" height="8" rx="4" fill="#5A2DCF" opacity="0.4" />
    <rect x="65" y="330" width="50" height="8" rx="4" fill="#5A2DCF" opacity="0.4" />
    <rect x="65" y="350" width="50" height="8" rx="4" fill="#5A2DCF" opacity="0.4" />

    <!-- Icons -->
    <circle cx="75" cy="172" r="6" fill="#5A2DCF" />
    <circle cx="75" cy="192" r="6" fill="#5A2DCF" opacity="0.6" />
    <circle cx="75" cy="212" r="6" fill="#5A2DCF" opacity="0.6" />
    <circle cx="75" cy="232" r="6" fill="#5A2DCF" opacity="0.6" />
    <circle cx="75" cy="252" r="6" fill="#5A2DCF" opacity="0.6" />
    <circle cx="75" cy="332" r="6" fill="#5A2DCF" opacity="0.6" />
    <circle cx="75" cy="352" r="6" fill="#5A2DCF" opacity="0.6" />

    <!-- Main content area -->
    <rect x="150" y="160" width="280" height="120" rx="8" fill="white" stroke="#DDE1EE"
        stroke-width="2" />
    <rect x="170" y="180" width="100" height="16" rx="8" fill="#5A2DCF" opacity="0.1" />
    <rect x="170" y="210" width="240" height="10" rx="5" fill="#DDE1EE" />
    <rect x="170" y="230" width="180" height="10" rx="5" fill="#DDE1EE" />
    <rect x="170" y="250" width="200" height="10" rx="5" fill="#DDE1EE" />

    <!-- Charts -->
    <rect x="150" y="300" width="130" height="100" rx="8" fill="white" stroke="#DDE1EE"
        stroke-width="2" />
    <circle cx="215" cy="340" r="35" fill="#5A2DCF" opacity="0.1" />
    <path d="M215 305 A35 35 0 0 1 250 340" stroke="#5A2DCF" stroke-width="12" fill="none" />
    <path d="M215 305 A35 35 0 0 1 215 375" stroke="#2066E4" stroke-width="12" fill="none" />
    <path d="M215 305 A35 35 0 0 1 180 340" stroke="#6578E4" stroke-width="12" fill="none" />

    <rect x="300" y="300" width="130" height="100" rx="8" fill="white" stroke="#DDE1EE"
        stroke-width="2" />
    <rect x="320" y="330" width="10" height="50" rx="5" fill="#5A2DCF" opacity="0.3" />
    <rect x="340" y="315" width="10" height="65" rx="5" fill="#5A2DCF" opacity="0.5" />
    <rect x="360" y="340" width="10" height="40" rx="5" fill="#5A2DCF" opacity="0.7" />
    <rect x="380" y="320" width="10" height="60" rx="5" fill="#5A2DCF" opacity="0.9" />
    <rect x="400" y="330" width="10" height="50" rx="5" fill="#5A2DCF" />
</svg> 